# xmcd CD database file
#
# Track frame offsets:
#	180
#	13955
#	27615
#	40815
#	55145
#	68520
#	80437
#	92050
#	105732
#	120770
#	133905
#	147750
#	161580
#	175425
#	189265
#	202475
#	216570
#	231107
#	245515
#	258967
#	273960
#	288597
#
# Disc length: 4024 seconds
#
# Revision: 0
# Processed by: cddbd v1.5.1PL0 Copyright (c) Steve Scherf et al.
# Submitted via: CDex 1.51
#
DISCID=490fb616
DTITLE=Roy Eldridge - Little Jazz
DYEAR=1900
DGENRE=Jazz
TTITLE0=HERE COMES COOKIE
TTITLE1=CHRISTOPHER COLOMBUS
TTITLE2=BIG CHIEF DE SOTA
TTITLE3=WABASH STOMP
TTITLE4=FLORIDA STOPM
TTITLE5=HECKLER'S STOMP
TTITLE6=WHERE THE LAZY RIVER GOES BY
TTITLE7=AFTER YOU'VE GONE
TTITLE8=WHAM !
TTITLE9=LAUGHING AT LIFE
TTITLE10=LET ME OFF UPTOWN
TTITLE11=ROCKIN' CHAIR
TTITLE12=KNOCK ME A KISS
TTITLE13=THAT DRUMMER'S BAND
TTITLE14=THE GASSER
TTITLE15=THE GREAT LIE
TTITLE16=GULF COAST BLUES
TTITLE17=I CAN'T GET STARTED
TTITLE18=AFTER YOU'VE GONE
TTITLE19=BODY AND SOUL
TTITLE20=FISH MARKET
TTITLE21=TWILIGHT TIME
EXTD=
EXTT0=
EXTT1=
EXTT2=
EXTT3=
EXTT4=
EXTT5=
EXTT6=
EXTT7=
EXTT8=
EXTT9=
EXTT10=
EXTT11=
EXTT12=
EXTT13=
EXTT14=
EXTT15=
EXTT16=
EXTT17=
EXTT18=
EXTT19=
EXTT20=
EXTT21=
PLAYORDER=
